<svg id="07ac52fb-cf28-4c08-aee9-b76ce84aa814" data-name="Layer 1" xmlns="http://www.w3.org/2000/svg" viewBox="0 0 60.43 59.59"><title>infobox</title><rect x="333.98" y="53.72" width="7.5" height="20.14" transform="translate(114.15 -333.98) rotate(90)" fill="#476483"/><rect x="313.84" y="53.72" width="7.5" height="20.14" transform="translate(94.01 -313.84) rotate(90)" fill="#9e3f52"/><rect x="293.69" y="53.72" width="7.5" height="20.14" transform="translate(73.86 -293.69) rotate(90)" fill="#c79642"/><rect x="293.69" y="71.08" width="7.5" height="20.14" transform="translate(-71.08 318.56) rotate(-90)" fill="#6c9ace"/><rect x="313.84" y="71.08" width="7.5" height="20.14" transform="translate(-50.94 338.7) rotate(-90)" fill="#243f5f"/><rect x="333.98" y="71.08" width="7.5" height="20.14" transform="translate(-30.79 358.85) rotate(-90)" fill="#e48263"/><rect x="328.95" y="83.41" width="7.5" height="30.22" transform="translate(143.85 -294.22) rotate(90)" fill="#307a7e"/><rect x="298.73" y="83.41" width="7.5" height="30.22" transform="translate(113.63 -264) rotate(90)" fill="#e48263"/><rect x="313.84" y="85.67" width="7.5" height="60.43" transform="translate(146.1 -261.74) rotate(90)" fill="#9e3f52"/></svg>